<?xml version="1.0" encoding="UTF-8" ?>
<!DOCTYPE svg PUBLIC "-//W3C//DTD SVG 1.1//EN" "http://www.w3.org/Graphics/SVG/1.1/DTD/svg11.dtd">
<svg width="123pt" height="125pt" viewBox="0 0 123 125" version="1.1" xmlns="http://www.w3.org/2000/svg">
<g id="#ffffffff">
<path fill="#ffffff" opacity="1.00" d=" M 0.00 0.00 L 123.00 0.00 L 123.00 125.00 L 0.00 125.00 L 0.00 0.00 M 58.39 13.48 C 56.13 13.38 53.87 13.36 51.61 13.44 C 53.43 16.56 57.05 17.44 60.41 17.58 C 60.34 18.28 60.20 19.66 60.13 20.36 C 54.22 20.97 48.23 20.57 42.29 20.47 C 45.12 19.21 48.58 18.68 50.16 15.68 C 47.51 15.59 44.86 15.69 42.21 15.91 C 41.45 11.22 36.07 10.90 32.41 9.71 C 35.89 17.01 39.18 24.40 42.27 31.87 C 56.08 31.88 69.89 31.89 83.70 31.86 C 86.75 24.36 90.14 17.01 93.57 9.67 C 89.94 10.89 84.71 11.29 83.85 15.88 C 81.13 15.66 78.40 15.60 75.68 15.80 C 77.67 18.46 80.89 19.33 83.83 20.48 C 77.88 20.79 71.92 20.53 65.96 20.66 C 65.92 19.62 65.88 18.57 65.85 17.53 C 69.16 17.42 72.64 16.46 74.46 13.46 C 72.20 13.38 69.93 13.39 67.67 13.46 C 68.00 10.22 65.26 8.38 62.98 6.70 C 60.78 8.43 58.04 10.26 58.39 13.48 M 40.76 37.30 C 44.71 39.17 48.69 40.95 52.70 42.67 C 53.59 44.76 54.43 46.87 55.27 48.99 C 55.72 46.01 56.17 43.03 56.62 40.05 C 51.33 39.16 46.06 38.14 40.76 37.30 M 69.21 40.07 C 69.67 43.04 70.12 46.01 70.56 48.99 C 71.38 46.93 72.19 44.87 72.99 42.80 C 77.02 40.95 81.11 39.19 85.13 37.28 C 79.81 38.16 74.52 39.13 69.21 40.07 M 37.64 50.06 C 37.61 60.71 37.63 71.35 37.63 82.00 C 54.50 82.00 71.38 82.00 88.25 82.00 C 88.25 71.35 88.27 60.71 88.24 50.07 C 85.82 52.48 83.45 54.93 81.04 57.35 C 80.98 61.44 81.01 65.53 80.97 69.62 C 78.11 71.59 75.27 73.59 72.34 75.47 C 69.86 73.64 67.30 71.92 64.74 70.21 C 64.74 68.17 64.75 66.12 64.76 64.08 C 67.19 61.55 69.64 59.04 72.09 56.52 C 65.97 56.48 59.85 56.50 53.73 56.50 C 56.19 59.02 58.62 61.56 61.10 64.05 C 61.12 66.08 61.12 68.12 61.14 70.15 C 58.53 71.98 55.90 73.77 53.20 75.47 C 50.52 73.47 47.78 71.56 44.96 69.77 C 44.84 65.64 44.89 61.50 44.85 57.37 C 42.40 54.98 40.02 52.51 37.64 50.06 M 20.16 93.13 C 18.24 97.13 16.99 101.41 15.32 105.51 C 14.87 106.90 13.52 109.39 16.00 109.75 C 17.05 108.55 17.58 107.02 18.27 105.62 C 20.07 105.61 21.88 105.61 23.68 105.62 C 24.33 107.15 26.08 111.85 27.45 108.23 C 25.79 103.12 23.93 98.05 21.79 93.13 C 21.38 93.13 20.57 93.13 20.16 93.13 M 90.33 99.26 C 90.74 99.73 91.58 100.69 91.99 101.16 C 92.39 103.97 90.71 108.13 93.99 109.63 C 96.31 109.75 95.32 107.35 94.69 106.27 C 94.64 104.73 94.62 103.20 94.62 101.66 C 95.12 100.90 95.56 100.12 95.94 99.31 C 94.74 97.35 94.57 95.05 94.01 92.88 C 90.62 93.00 93.14 97.89 90.33 99.26 M 30.27 98.02 C 29.96 101.75 29.72 105.53 30.25 109.25 C 32.84 110.94 32.38 107.32 32.51 106.03 C 32.60 104.05 31.99 100.52 34.96 100.52 C 39.91 100.98 35.47 107.75 38.75 109.61 C 41.92 107.92 37.84 101.89 41.95 100.49 C 45.25 100.03 45.13 103.75 45.01 105.96 C 44.88 107.47 44.88 110.70 47.31 109.11 C 47.44 105.71 48.58 101.05 45.26 98.78 C 43.23 97.31 40.75 98.31 38.70 99.15 C 36.08 97.78 33.10 98.30 30.27 98.02 M 53.21 99.14 C 49.60 101.72 50.62 108.19 55.00 109.31 C 57.31 110.13 59.63 107.70 61.84 109.00 C 62.03 105.31 62.35 101.55 61.50 97.91 C 58.84 99.29 55.57 96.99 53.21 99.14 M 66.64 99.06 C 66.32 102.38 66.37 105.75 66.67 109.08 L 67.84 109.56 C 70.48 108.03 67.74 103.38 70.49 101.51 C 71.54 100.50 74.22 100.25 73.23 98.26 C 72.66 98.17 71.51 98.01 70.94 97.92 C 70.43 98.53 69.90 99.13 69.36 99.71 C 69.07 99.17 68.49 98.10 68.20 97.57 C 67.81 97.94 67.03 98.69 66.64 99.06 M 78.39 108.51 C 80.60 110.10 85.64 110.00 86.16 106.85 C 83.48 106.70 79.66 108.00 78.61 104.55 C 81.55 104.49 84.49 104.51 87.44 104.38 C 87.60 100.46 83.91 96.88 79.95 98.24 C 75.45 99.37 74.42 106.08 78.39 108.51 M 100.61 99.68 C 97.95 102.27 98.69 107.34 102.08 108.95 C 103.83 110.00 105.82 109.13 107.63 108.79 C 108.03 109.09 108.84 109.69 109.24 109.99 C 110.39 106.27 110.36 102.09 109.57 98.34 C 106.59 98.67 102.90 97.06 100.61 99.68 Z" />
<path fill="#ffffff" opacity="1.00" d=" M 20.95 97.94 C 21.59 99.62 22.23 101.31 22.87 103.00 C 21.60 103.00 20.33 102.99 19.06 102.99 C 19.69 101.31 20.32 99.62 20.95 97.94 Z" />
<path fill="#ffffff" opacity="1.00" d=" M 78.00 102.33 C 79.99 99.46 83.38 100.09 85.58 102.26 C 83.06 102.53 80.52 102.55 78.00 102.33 Z" />
<path fill="#ffffff" opacity="1.00" d=" M 54.39 101.39 C 56.21 99.27 59.90 101.24 59.49 103.89 C 59.59 105.68 57.82 107.38 56.01 106.94 C 53.44 106.73 52.69 103.04 54.39 101.39 Z" />
<path fill="#ffffff" opacity="1.00" d=" M 102.38 101.41 C 103.40 100.17 105.54 100.20 106.58 101.41 C 108.32 103.02 107.51 106.75 104.96 106.92 C 101.96 107.68 100.33 103.32 102.38 101.41 Z" />
</g>
<g id="#faa61aff">
<path fill="#faa61a" opacity="1.00" d=" M 58.39 13.48 C 58.04 10.26 60.78 8.43 62.98 6.70 C 65.26 8.38 68.00 10.22 67.67 13.46 C 69.93 13.39 72.20 13.38 74.46 13.46 C 72.64 16.46 69.16 17.42 65.85 17.53 C 65.88 18.57 65.92 19.62 65.96 20.66 C 71.92 20.53 77.88 20.79 83.83 20.48 C 80.89 19.33 77.67 18.46 75.68 15.80 C 78.40 15.60 81.13 15.66 83.85 15.88 C 84.71 11.29 89.94 10.89 93.57 9.67 C 90.14 17.01 86.75 24.36 83.70 31.86 C 69.89 31.89 56.08 31.88 42.27 31.87 C 39.18 24.40 35.89 17.01 32.41 9.71 C 36.07 10.90 41.45 11.22 42.21 15.91 C 44.86 15.69 47.51 15.59 50.16 15.68 C 48.58 18.68 45.12 19.21 42.29 20.47 C 48.23 20.57 54.22 20.97 60.13 20.36 C 60.20 19.66 60.34 18.28 60.41 17.58 C 57.05 17.44 53.43 16.56 51.61 13.44 C 53.87 13.36 56.13 13.38 58.39 13.48 Z" />
</g>
<g id="#5a4a42ff">
<path fill="#5a4a42" opacity="1.00" d=" M 40.76 37.30 C 46.06 38.14 51.33 39.16 56.62 40.05 C 56.17 43.03 55.72 46.01 55.27 48.99 C 54.43 46.87 53.59 44.76 52.70 42.67 C 48.69 40.95 44.71 39.17 40.76 37.30 Z" />
<path fill="#5a4a42" opacity="1.00" d=" M 69.21 40.07 C 74.52 39.13 79.81 38.16 85.13 37.28 C 81.11 39.19 77.02 40.95 72.99 42.80 C 72.19 44.87 71.38 46.93 70.56 48.99 C 70.12 46.01 69.67 43.04 69.21 40.07 Z" />
<path fill="#5a4a42" opacity="1.00" d=" M 37.64 50.06 C 40.02 52.51 42.40 54.98 44.85 57.37 C 44.89 61.50 44.84 65.64 44.96 69.77 C 47.78 71.56 50.52 73.47 53.20 75.47 C 55.90 73.77 58.53 71.98 61.14 70.15 C 61.12 68.12 61.12 66.08 61.10 64.05 C 58.62 61.56 56.19 59.02 53.73 56.50 C 59.85 56.50 65.97 56.48 72.09 56.52 C 69.64 59.04 67.19 61.55 64.76 64.08 C 64.75 66.12 64.74 68.17 64.74 70.21 C 67.30 71.92 69.86 73.64 72.34 75.47 C 75.27 73.59 78.11 71.59 80.97 69.62 C 81.01 65.53 80.98 61.44 81.04 57.35 C 83.45 54.93 85.82 52.48 88.24 50.07 C 88.27 60.71 88.25 71.35 88.25 82.00 C 71.38 82.00 54.50 82.00 37.63 82.00 C 37.63 71.35 37.61 60.71 37.64 50.06 Z" />
<path fill="#5a4a42" opacity="1.00" d=" M 20.16 93.13 C 20.57 93.13 21.38 93.13 21.79 93.13 C 23.93 98.05 25.79 103.12 27.45 108.23 C 26.08 111.85 24.33 107.15 23.68 105.62 C 21.88 105.61 20.07 105.61 18.27 105.62 C 17.58 107.02 17.05 108.55 16.00 109.75 C 13.52 109.39 14.87 106.90 15.32 105.51 C 16.99 101.41 18.24 97.13 20.16 93.13 M 20.95 97.94 C 20.32 99.62 19.69 101.31 19.06 102.99 C 20.33 102.99 21.60 103.00 22.87 103.00 C 22.23 101.31 21.59 99.62 20.95 97.94 Z" />
<path fill="#5a4a42" opacity="1.00" d=" M 90.33 99.26 C 93.14 97.89 90.62 93.00 94.01 92.88 C 94.57 95.05 94.74 97.35 95.94 99.31 C 95.56 100.12 95.12 100.90 94.62 101.66 C 94.62 103.20 94.64 104.73 94.69 106.27 C 95.32 107.35 96.31 109.75 93.99 109.63 C 90.71 108.13 92.39 103.97 91.99 101.16 C 91.58 100.69 90.74 99.73 90.33 99.26 Z" />
<path fill="#5a4a42" opacity="1.00" d=" M 30.27 98.02 C 33.10 98.30 36.08 97.78 38.70 99.15 C 40.75 98.31 43.23 97.31 45.26 98.78 C 48.58 101.05 47.44 105.71 47.31 109.11 C 44.88 110.70 44.88 107.47 45.01 105.96 C 45.13 103.75 45.25 100.03 41.95 100.49 C 37.84 101.89 41.92 107.92 38.75 109.61 C 35.47 107.75 39.91 100.98 34.96 100.52 C 31.99 100.52 32.60 104.05 32.51 106.03 C 32.38 107.32 32.84 110.94 30.25 109.25 C 29.72 105.53 29.96 101.75 30.27 98.02 Z" />
<path fill="#5a4a42" opacity="1.00" d=" M 53.21 99.14 C 55.57 96.99 58.84 99.29 61.50 97.91 C 62.35 101.55 62.03 105.31 61.84 109.00 C 59.63 107.70 57.31 110.13 55.00 109.31 C 50.62 108.19 49.60 101.72 53.21 99.14 M 54.39 101.39 C 52.69 103.04 53.44 106.73 56.01 106.94 C 57.82 107.38 59.59 105.68 59.49 103.89 C 59.90 101.24 56.21 99.27 54.39 101.39 Z" />
<path fill="#5a4a42" opacity="1.00" d=" M 66.64 99.06 C 67.03 98.69 67.81 97.94 68.20 97.57 C 68.49 98.10 69.07 99.17 69.36 99.71 C 69.90 99.13 70.43 98.53 70.94 97.92 C 71.51 98.01 72.66 98.17 73.23 98.26 C 74.22 100.25 71.54 100.50 70.49 101.51 C 67.74 103.38 70.48 108.03 67.84 109.56 L 66.67 109.08 C 66.37 105.75 66.32 102.38 66.64 99.06 Z" />
<path fill="#5a4a42" opacity="1.00" d=" M 78.39 108.51 C 74.42 106.08 75.45 99.37 79.95 98.24 C 83.91 96.88 87.60 100.46 87.44 104.38 C 84.49 104.51 81.55 104.49 78.61 104.55 C 79.66 108.00 83.48 106.70 86.16 106.85 C 85.64 110.00 80.60 110.10 78.39 108.51 M 78.00 102.33 C 80.52 102.55 83.06 102.53 85.58 102.26 C 83.38 100.09 79.99 99.46 78.00 102.33 Z" />
<path fill="#5a4a42" opacity="1.00" d=" M 100.61 99.68 C 102.90 97.06 106.59 98.67 109.57 98.34 C 110.36 102.09 110.39 106.27 109.24 109.99 C 108.84 109.69 108.03 109.09 107.63 108.79 C 105.82 109.13 103.83 110.00 102.08 108.95 C 98.69 107.34 97.95 102.27 100.61 99.68 M 102.38 101.41 C 100.33 103.32 101.96 107.68 104.96 106.92 C 107.51 106.75 108.32 103.02 106.58 101.41 C 105.54 100.20 103.40 100.17 102.38 101.41 Z" />
</g>
</svg>
